<svg width="48" height="48" viewBox="0 0 48 48" fill="none" xmlns="http://www.w3.org/2000/svg">
<circle cx="24" cy="24" r="24" fill="#DE633E"/>
<path d="M24.5002 22C24.5002 20.35 23.1502 19 21.5002 19C19.8502 19 18.5002 20.35 18.5002 22C18.5002 23.65 19.8502 25 21.5002 25C23.1502 25 24.5002 23.65 24.5002 22ZM21.5002 23C20.9502 23 20.5002 22.55 20.5002 22C20.5002 21.45 20.9502 21 21.5002 21C22.0502 21 22.5002 21.45 22.5002 22C22.5002 22.55 22.0502 23 21.5002 23ZM28.0002 25C29.1102 25 30.0002 24.11 30.0002 23C30.0002 21.89 29.1102 21 28.0002 21C26.8902 21 25.9902 21.89 26.0002 23C26.0002 24.11 26.8902 25 28.0002 25ZM23.9902 14.01C18.4702 14.01 13.9902 18.49 13.9902 24.01C13.9902 29.53 18.4702 34.01 23.9902 34.01C29.5102 34.01 33.9902 29.53 33.9902 24.01C33.9902 18.49 29.5102 14.01 23.9902 14.01ZM17.8402 29.12C18.5202 28.58 20.1102 28.01 21.5002 28.01C21.5702 28.01 21.6502 28.02 21.7302 28.02C21.9702 27.38 22.4002 26.73 23.0302 26.16C22.5257 26.0633 22.0139 26.0098 21.5002 26C20.2002 26 18.1102 26.45 16.7702 27.43C16.2702 26.39 15.9902 25.23 15.9902 24C15.9902 19.59 19.5802 16 23.9902 16C28.4002 16 31.9902 19.59 31.9902 24C31.9902 25.2 31.7202 26.34 31.2402 27.37C30.2402 26.78 28.8802 26.5 28.0002 26.5C26.4802 26.5 23.5002 27.31 23.5002 29.2V31.98C22.4109 31.9181 21.346 31.6321 20.3721 31.14C19.3982 30.6479 18.5363 29.9603 17.8402 29.12Z" fill="#F9F9F9"/>
</svg>
