<svg width="50" height="41" viewBox="0 0 50 41" fill="none" xmlns="http://www.w3.org/2000/svg">
<path fill-rule="evenodd" clip-rule="evenodd" d="M8.3855 22.4584C3.75435 22.4584 0 24.7263 0 27.5238C0 30.3215 3.75435 32.5893 8.3855 32.5893C13.0167 32.5893 16.771 30.3216 16.771 27.5238C16.771 24.7263 13.0167 22.4584 8.3855 22.4584Z" fill="#DE633E"/>
<path fill-rule="evenodd" clip-rule="evenodd" d="M16.05 10.2475C12.2345 7.57564 7.87988 7.27647 6.32379 9.57924C4.76798 11.8821 6.59965 15.9148 10.4153 18.5867C14.2308 21.2587 18.5854 21.5579 20.1415 19.2553C21.6973 16.9525 19.8656 12.9197 16.05 10.2477V10.2475Z" fill="#DE633E"/>
<path fill-rule="evenodd" clip-rule="evenodd" d="M30.2925 4.68938C28.1737 0.647479 24.6505 -1.12076 22.4237 0.73997C20.1967 2.60084 20.109 7.38589 22.2279 11.4279C24.3467 15.4698 27.8698 17.2381 30.0967 15.3772C32.3237 13.5166 32.4113 8.73128 30.2925 4.68938Z" fill="#DB9A40"/>
<path fill-rule="evenodd" clip-rule="evenodd" d="M43.1406 10.1852C43.9488 7.12992 42.9943 4.54451 41.0088 4.41102C39.0233 4.27753 36.7587 6.64619 35.9505 9.70189C35.1424 12.7573 36.0967 15.3426 38.0822 15.4759C40.0677 15.6094 42.3325 13.2408 43.1406 10.1853V10.1852Z" fill="#1AA3A1"/>
<path fill-rule="evenodd" clip-rule="evenodd" d="M48.1245 20.054C49.877 18.8433 50.5152 17.076 49.5496 16.1068C48.5842 15.1373 46.3805 15.3329 44.628 16.5436C42.8752 17.7542 42.2373 19.5215 43.2028 20.4907C44.1683 21.4602 46.3719 21.2645 48.1245 20.0541V20.054Z" fill="#1AA3A1"/>
<path fill-rule="evenodd" clip-rule="evenodd" d="M44.561 32.9427C46.2977 34.1769 48.1456 34.1517 48.6884 32.886C49.2313 31.6204 48.2635 29.5939 46.5268 28.3593C44.7901 27.1251 42.9424 27.1503 42.3994 28.4159C41.8566 29.6816 42.8244 31.7082 44.561 32.9427Z" fill="#1AA3A1"/>
<path fill-rule="evenodd" clip-rule="evenodd" d="M33.6587 38.2871C33.5096 39.9114 34.4789 41.1217 35.8236 40.99C37.1681 40.8582 38.3791 39.4348 38.5282 37.8103C38.6773 36.1859 37.708 34.9757 36.3633 35.1073C35.0188 35.239 33.8078 36.6625 33.6587 38.2871Z" fill="#00A85A"/>
<path fill-rule="evenodd" clip-rule="evenodd" d="M25.0672 34.3242C23.5711 34.3242 22.3584 35.5599 22.3584 37.084C22.3584 38.6086 23.5711 39.8443 25.0672 39.8443C26.5632 39.8443 27.7759 38.6086 27.7759 37.084C27.7759 35.5599 26.5632 34.3242 25.0672 34.3242Z" fill="#00A85A"/>
</svg>
